<svg width="40" height="40" viewBox="0 0 40 40" fill="none" xmlns="http://www.w3.org/2000/svg">
<g clip-path="url(#clip0_47_481)">
<path d="M29.8752 40H23.0995L20.0055 38.9798L16.9337 40H10.1248C4.53563 40 0 35.4644 0 29.8752V10.1248C0 4.53563 4.53563 0 10.1248 0H29.8752C35.4644 0 40 4.53563 40 10.1248V29.8752C40 35.4644 35.4644 40 29.8752 40Z" fill="#337FFF"/>
<path d="M16.9119 15.647V19.9941H11.8994V25.7052H16.9119V39.9885H23.0888V25.7052H27.6909L28.567 19.9941H23.0888V16.2902C23.0888 14.7265 23.8539 13.2073 26.3047 13.2073H28.7999V8.35005C28.7999 8.35005 26.5376 7.96191 24.3752 7.96191C19.8617 7.96191 16.9119 10.701 16.9119 15.647Z" fill="white"/>
</g>
<defs>
<clipPath id="clip0_47_481">
<rect width="40" height="40" fill="white"/>
</clipPath>
</defs>
</svg>
