<svg width="40" height="40" viewBox="0 0 40 40" fill="none" xmlns="http://www.w3.org/2000/svg">
<g clip-path="url(#clip0_47_484)">
<path d="M30.5807 7.13965C29.2897 7.13965 28.2344 8.19494 28.2344 9.48599C28.2344 10.777 29.2897 11.8323 30.5807 11.8323C31.8718 11.8323 32.9271 10.777 32.9271 9.48599C32.9271 8.19494 31.8718 7.13965 30.5807 7.13965Z" fill="url(#paint0_linear_47_484)"/>
<path d="M20.163 10.1484C14.7294 10.1484 10.3174 14.5717 10.3174 19.9941C10.3174 25.4165 14.7406 29.8397 20.163 29.8397C25.5854 29.8397 30.0087 25.4165 30.0087 19.9941C30.0087 14.5717 25.5854 10.1484 20.163 10.1484ZM20.163 26.3034C16.6828 26.3034 13.8537 23.4743 13.8537 19.9941C13.8537 16.5139 16.6828 13.6848 20.163 13.6848C23.6432 13.6848 26.4723 16.5139 26.4723 19.9941C26.4723 23.4743 23.6432 26.3034 20.163 26.3034Z" fill="url(#paint1_linear_47_484)"/>
<path d="M27.9764 40H12.0123C5.38872 40 0 34.6113 0 27.9876V12.0236C0 5.38872 5.38872 0 12.0123 0H27.9764C34.6001 0 39.9888 5.38872 39.9888 12.0123V27.9764C39.9888 34.6001 34.6001 39.9888 27.9764 39.9888V40ZM12.0123 3.76088C7.46562 3.76088 3.76088 7.46562 3.76088 12.0123V27.9764C3.76088 32.5232 7.46562 36.2279 12.0123 36.2279H27.9764C32.5232 36.2279 36.2279 32.5232 36.2279 27.9764V12.0123C36.2279 7.46562 32.5232 3.76088 27.9764 3.76088H12.0123Z" fill="url(#paint2_linear_47_484)"/>
</g>
<defs>
<linearGradient id="paint0_linear_47_484" x1="12.2591" y1="-8.0498" x2="48.5319" y2="26.6625" gradientUnits="userSpaceOnUse">
<stop stop-color="#FBE18A"/>
<stop offset="0.21" stop-color="#FCBB45"/>
<stop offset="0.38" stop-color="#F75274"/>
<stop offset="0.52" stop-color="#D53692"/>
<stop offset="0.74" stop-color="#8F39CE"/>
<stop offset="1" stop-color="#5B4FE9"/>
</linearGradient>
<linearGradient id="paint1_linear_47_484" x1="2.03223" y1="2.63791" x2="38.305" y2="37.3615" gradientUnits="userSpaceOnUse">
<stop stop-color="#FBE18A"/>
<stop offset="0.21" stop-color="#FCBB45"/>
<stop offset="0.38" stop-color="#F75274"/>
<stop offset="0.52" stop-color="#D53692"/>
<stop offset="0.74" stop-color="#8F39CE"/>
<stop offset="1" stop-color="#5B4FE9"/>
</linearGradient>
<linearGradient id="paint2_linear_47_484" x1="1.95341" y1="2.72804" x2="38.2262" y2="37.4404" gradientUnits="userSpaceOnUse">
<stop stop-color="#FBE18A"/>
<stop offset="0.21" stop-color="#FCBB45"/>
<stop offset="0.38" stop-color="#F75274"/>
<stop offset="0.52" stop-color="#D53692"/>
<stop offset="0.74" stop-color="#8F39CE"/>
<stop offset="1" stop-color="#5B4FE9"/>
</linearGradient>
<clipPath id="clip0_47_484">
<rect width="40" height="40" fill="white"/>
</clipPath>
</defs>
</svg>
