<svg width="175" height="40" viewBox="0 0 175 40" fill="none" xmlns="http://www.w3.org/2000/svg">
<g clip-path="url(#clip0_25_463)">
<path d="M53.4713 31.663C53.4713 31.663 55.1044 25.0985 57.2762 18.0762C55.0156 16.1035 52.0216 14.8994 48.7382 14.8994C45.9791 14.8994 43.4263 15.7512 41.3377 17.1939C41.6328 23.603 41.4895 31.7712 40.2632 34.4042C40.034 34.898 39.7905 35.3641 39.5298 35.8053C41.8505 38.1497 45.1167 39.6119 48.7353 39.6119C51.1277 39.6119 53.3625 38.9738 55.2763 37.864C52.1992 36.0744 53.4713 31.663 53.4713 31.663Z" fill="#6DA13C"/>
<path d="M18.5658 30.7495C18.3051 27.0899 18.6145 21.0637 19.1045 16.1944C18.8122 15.6812 18.5257 15.24 18.2507 14.9015C15.7981 11.8718 11.2684 10.3208 8.06239 14.9015C4.85635 19.4822 1.01999 32.5751 1.01999 32.5751C1.01999 32.5751 -2.18892 37.7523 2.78202 39.0314C7.7501 40.3104 19.1331 40.2494 22.216 39.0314C22.5225 38.9093 22.8062 38.7817 23.0726 38.6513C20.2505 37.2612 18.8523 34.7337 18.5687 30.7467L18.5658 30.7495Z" fill="#446A37"/>
<path d="M41.3376 17.1936C41.223 14.7076 41.0425 12.488 40.8305 10.9565C40.077 5.47408 38.378 3.28223 30.138 3.22119C21.898 3.16015 20.2649 8.88395 20.2649 8.88395C19.8781 9.96045 19.4483 12.796 19.1045 16.192C21.4453 20.2927 24.2817 29.3265 25.2329 32.5754C26.1956 35.8632 25.4707 37.4752 23.0698 38.6516C24.6484 39.4284 26.6683 39.8502 29.1954 39.9667C35.2865 40.2497 37.8508 38.6127 39.5298 35.8022C37.3322 33.5826 35.977 30.5722 35.977 27.2539C35.977 23.1033 38.0943 19.4326 41.3376 17.1908V17.1936Z" fill="#A4B648"/>
<path d="M41.3376 17.1934C38.0944 19.4324 35.9771 23.103 35.9771 27.2565C35.9771 30.5748 37.3294 33.5851 39.5298 35.8047C39.7934 35.3664 40.034 34.8975 40.2632 34.4036C41.4866 31.7706 41.6327 23.6025 41.3376 17.1934Z" fill="#538435"/>
<path d="M25.233 32.5758C24.2818 29.3297 21.4453 20.2931 19.1046 16.1924C18.6146 21.0616 18.3052 27.0879 18.5659 30.7474C18.8496 34.7316 20.2449 37.262 23.0698 38.652C25.4708 37.4756 26.1957 35.8636 25.233 32.5758Z" fill="#39582C"/>
<path d="M80.2627 31.357C79.9475 29.4703 74.9794 9.24975 73.3435 5.59573C71.7075 1.94171 67.8081 -3.17447 63.5334 2.61036C61.5278 5.32383 59.1928 11.8772 57.276 18.0754C59.8661 20.3367 61.4963 23.6106 61.4963 27.2535C61.4963 31.7621 59.0008 35.7046 55.2791 37.8632C55.6888 38.1018 56.1701 38.2932 56.7431 38.4209C61.6482 39.5168 73.7245 40.7348 78.0623 38.9092C82.4029 37.0808 80.5778 33.2464 80.2627 31.357Z" fill="#6A8238"/>
<path d="M61.4935 27.2542C61.4935 23.6113 59.8632 20.3374 57.2732 18.0762C55.1015 25.0984 53.4683 31.6629 53.4683 31.6629C53.4683 31.6629 52.1962 36.0744 55.2734 37.8639C58.998 35.7054 61.4906 31.7628 61.4906 27.2542H61.4935Z" fill="#456A37"/>
<path d="M91.2847 17.0384C90.3478 17.7015 89.2935 18.076 88.1245 18.162V15.049C89.3135 14.8049 90.2476 13.9753 90.9323 12.5631C91.6171 11.1509 91.958 9.31137 91.958 7.0446L95.1984 7.15003C95.1984 8.50954 95.0638 9.86904 94.7945 11.2313L99.1437 15.3903L96.9834 17.6127L93.6083 14.3443C92.9952 15.4791 92.2216 16.3753 91.2847 17.0384ZM105.315 19.7185C106.98 20.39 107.813 21.4581 107.813 22.9231C107.813 24.388 106.98 25.4285 105.315 26.0999C103.65 26.7713 101.439 27.107 98.6853 27.107C95.9319 27.107 93.7458 26.7713 92.0812 26.0999C90.4166 25.4285 89.5829 24.3686 89.5829 22.9231C89.5829 21.4776 90.4166 20.39 92.0812 19.7185C93.7458 19.0471 95.9491 18.7114 98.6853 18.7114C101.421 18.7114 103.65 19.0471 105.315 19.7185ZM102.656 24.0218C103.682 23.7943 104.195 23.428 104.195 22.9231C104.195 22.4181 103.685 22.0519 102.668 21.8244C101.651 21.5969 100.321 21.4831 98.6853 21.4831C97.0493 21.4831 95.7514 21.5969 94.7429 21.8244C93.7344 22.0519 93.2301 22.4181 93.2301 22.9231C93.2301 23.428 93.7372 23.7943 94.7572 24.0218C95.7743 24.2493 97.0837 24.363 98.6881 24.363C100.293 24.363 101.631 24.2493 102.659 24.0218H102.656ZM98.9832 17.9012V6.94194H102.169V10.1853H104.41V6.86426H107.596V18.556H104.41V13.3788H102.169V17.904H98.9832V17.9012Z" fill="#5D4829"/>
<path d="M110.217 17.0132V7.17762H121.749V17.0105H110.217V17.0132ZM126.328 19.391C127.938 20.0874 128.746 21.1944 128.746 22.7121C128.746 24.2297 127.941 25.3617 126.328 26.0609C124.718 26.7573 122.56 27.1069 119.858 27.1069C117.157 27.1069 115.034 26.7573 113.429 26.0609C111.827 25.3645 111.025 24.2464 111.025 22.7121C111.025 21.1778 111.827 20.0874 113.429 19.391C115.031 18.6946 117.174 18.345 119.858 18.345C122.543 18.345 124.715 18.6946 126.328 19.391ZM113.567 10.0548V14.1361H118.4V10.0548H113.567ZM123.629 23.9301C124.591 23.6609 125.073 23.2559 125.073 22.7148C125.073 22.1738 124.591 21.7743 123.629 21.5107C122.666 21.2499 121.408 21.1195 119.861 21.1195C118.314 21.1195 117.088 21.2499 116.134 21.5107C115.18 21.7715 114.701 22.1738 114.701 22.7148C114.701 23.2559 115.18 23.6609 116.134 23.9301C117.088 24.202 118.331 24.3351 119.861 24.3351C121.391 24.3351 122.666 24.1992 123.629 23.9301ZM122.778 15.8868V12.9042H125.207V11.1257H122.778V8.14315H125.207V6.86133H128.557V17.926H125.207V15.8868H122.778Z" fill="#5D4829"/>
<path d="M142.762 25.7087C141.753 25.8585 140.673 25.9306 139.521 25.9306H130.96V22.6872H139.656C140.753 22.6872 141.793 22.6179 142.776 22.4792C143.756 22.3404 144.564 22.1296 145.194 21.8521V25.0678C144.581 25.348 143.77 25.5616 142.765 25.7087H142.762ZM140.994 7.88527C141.939 8.4263 142.679 9.18374 143.209 10.1604C143.739 11.137 144.005 12.2607 144.005 13.5342C144.005 14.8077 143.739 15.9369 143.209 16.9218C142.679 17.9068 141.939 18.6698 140.994 19.2108C140.049 19.7518 138.983 20.021 137.794 20.021C136.605 20.021 135.507 19.7518 134.553 19.2108C133.599 18.6698 132.857 17.9068 132.324 16.9218C131.794 15.9369 131.528 14.8077 131.528 13.5342C131.528 12.2607 131.794 11.137 132.324 10.1604C132.854 9.18374 133.596 8.4263 134.553 7.88527C135.507 7.34425 136.587 7.07512 137.794 7.07512C139 7.07512 140.049 7.34702 140.994 7.88527ZM135.645 11.1398C135.115 11.7751 134.848 12.5742 134.848 13.5342C134.848 14.4941 135.115 15.3348 135.645 15.9535C136.175 16.5722 136.891 16.883 137.791 16.883C138.69 16.883 139.384 16.5695 139.925 15.9424C140.467 15.3154 140.736 14.5136 140.736 13.5369C140.736 12.5603 140.467 11.7807 139.925 11.1425C139.387 10.5072 138.673 10.1881 137.791 10.1881C136.908 10.1881 136.175 10.5072 135.645 11.1425V11.1398ZM146.489 26.9517V6.86426H149.864V26.9517H146.489Z" fill="#5D4829"/>
<path d="M163.992 19.3407H171.015V21.9294H167.745V24.3099H171.229V26.8985H153.348V24.3099H156.807V21.9294H153.566V19.3407H160.588V17.8758H152.351V15.1818H172.229V17.8758H163.992V19.3407ZM158.09 13.3645C156.48 13.9305 154.772 14.2329 152.973 14.2662V11.4667C154.251 11.414 155.494 11.1698 156.701 10.7342C157.907 10.2986 158.924 9.69657 159.752 8.93081C160.58 8.16505 161.093 7.29108 161.29 6.31445L164.749 6.91652C164.585 7.59627 164.345 8.24273 164.018 8.85312L171.851 11.7053L170.717 14.2939L162.181 11.0505C161.064 12.0272 159.7 12.7985 158.09 13.3645ZM160.13 21.9294V24.3099H164.425V21.9294H160.13Z" fill="#5D4829"/>
<path d="M90.2162 35.8771H93.6027V37.059H90.2162V39.8086H88.7808V32.5449H94.0411V33.7269H90.2162V35.8743V35.8771Z" fill="#5D4829"/>
<path d="M96.4536 39.4364C95.8691 39.1118 95.4078 38.6624 95.0726 38.0936C94.7374 37.5248 94.5684 36.8839 94.5684 36.1792C94.5684 35.4744 94.7374 34.8363 95.0726 34.2648C95.4078 33.6932 95.8691 33.2465 96.4536 32.9219C97.0381 32.5973 97.697 32.4336 98.4248 32.4336C99.1525 32.4336 99.8115 32.5973 100.402 32.9219C100.992 33.2465 101.453 33.6932 101.788 34.2592C102.124 34.8252 102.293 35.4661 102.293 36.1792C102.293 36.8922 102.124 37.5304 101.788 38.0991C101.453 38.6651 100.989 39.1118 100.402 39.4364C99.8143 39.7611 99.1525 39.9247 98.4248 39.9247C97.697 39.9247 97.0381 39.7611 96.4536 39.4364ZM99.6625 38.3516C100.029 38.1407 100.319 37.8439 100.531 37.4638C100.743 37.0837 100.846 36.6536 100.846 36.1764C100.846 35.6992 100.74 35.2691 100.531 34.889C100.321 34.5089 100.029 34.2121 99.6625 34.0012C99.2958 33.7903 98.8832 33.6849 98.4248 33.6849C97.9664 33.6849 97.5652 33.7903 97.1985 34.0012C96.8289 34.2121 96.5424 34.5089 96.3304 34.889C96.1184 35.2691 96.0152 35.6992 96.0152 36.1764C96.0152 36.6536 96.1212 37.0837 96.3304 37.4638C96.5424 37.8439 96.8289 38.1407 97.1985 38.3516C97.5652 38.5625 97.975 38.6679 98.4248 38.6679C98.8746 38.6679 99.2958 38.5625 99.6625 38.3516Z" fill="#5D4829"/>
<path d="M106.258 37.7138H104.713V39.8086H103.278V32.5449H106.258C106.879 32.5449 107.421 32.6476 107.882 32.8557C108.344 33.0638 108.696 33.3634 108.942 33.7546C109.189 34.1458 109.312 34.6064 109.312 35.1391C109.312 35.6718 109.18 36.1573 108.919 36.5513C108.659 36.9453 108.289 37.2394 107.811 37.4336L109.438 39.8086H107.897L106.45 37.7027C106.407 37.711 106.344 37.7138 106.258 37.7138ZM107.43 36.1712C107.719 35.927 107.862 35.5802 107.862 35.1391C107.862 34.6979 107.719 34.3539 107.432 34.1125C107.146 33.8711 106.728 33.7491 106.178 33.7491H104.711V36.5402H106.178C106.719 36.5402 107.137 36.4181 107.427 36.1712H107.43Z" fill="#5D4829"/>
<path d="M115.761 39.8086H110.361V32.5449H115.621V33.7269H111.785V35.5414H115.18V36.6928H111.785V38.6239H115.758V39.8058L115.761 39.8086Z" fill="#5D4829"/>
<path d="M117.5 39.6778C116.982 39.5169 116.569 39.306 116.263 39.0508L116.755 37.9521C117.056 38.1879 117.417 38.3766 117.838 38.5236C118.26 38.6679 118.684 38.7428 119.113 38.7428C119.621 38.7428 119.996 38.6596 120.245 38.4931C120.492 38.3266 120.615 38.1102 120.615 37.8383C120.615 37.6302 120.543 37.4638 120.4 37.3417C120.257 37.2168 120.079 37.1197 119.87 37.0448C119.658 36.9727 119.357 36.8867 118.964 36.7896C118.429 36.6647 117.99 36.5343 117.652 36.4011C117.314 36.2652 117.022 36.0571 116.778 35.7741C116.535 35.4911 116.415 35.111 116.415 34.6338C116.415 34.2259 116.523 33.8569 116.741 33.524C116.959 33.191 117.286 32.9275 117.721 32.7305C118.157 32.5335 118.689 32.4336 119.317 32.4336C119.767 32.4336 120.205 32.4919 120.629 32.6056C121.053 32.7194 121.423 32.8803 121.738 33.0884L121.288 34.1982C120.973 34.004 120.646 33.8597 120.308 33.7626C119.97 33.6655 119.638 33.6183 119.317 33.6183C118.815 33.6183 118.446 33.7071 118.202 33.8819C117.959 34.0567 117.838 34.2842 117.838 34.5616C117.838 34.7614 117.91 34.9279 118.053 35.0555C118.197 35.1831 118.377 35.283 118.601 35.3551C118.821 35.4273 119.122 35.5105 119.5 35.5993C120.05 35.7297 120.492 35.8629 120.824 35.9933C121.156 36.1237 121.443 36.3318 121.686 36.612C121.93 36.8922 122.05 37.2668 122.05 37.7384C122.05 38.1407 121.938 38.507 121.718 38.8371C121.497 39.1701 121.165 39.4337 120.721 39.6307C120.277 39.8276 119.738 39.9275 119.102 39.9275C118.552 39.9275 118.019 39.8471 117.5 39.6834V39.6778Z" fill="#5D4829"/>
<path d="M122.093 33.7491V32.5449H128.19V33.7491H125.864V39.8086H124.428V33.7491H122.093Z" fill="#5D4829"/>
<path d="M132.348 35.8771H135.734V37.059H132.348V39.8086H130.912V32.5449H136.172V33.7269H132.348V35.8743V35.8771Z" fill="#5D4829"/>
<path d="M138.582 39.4364C137.997 39.1118 137.536 38.6624 137.201 38.0936C136.866 37.5248 136.697 36.8839 136.697 36.1792C136.697 35.4744 136.866 34.8363 137.201 34.2648C137.536 33.6932 137.997 33.2465 138.582 32.9219C139.166 32.5973 139.825 32.4336 140.553 32.4336C141.281 32.4336 141.94 32.5973 142.53 32.9219C143.12 33.2465 143.581 33.6932 143.917 34.2592C144.252 34.8252 144.421 35.4661 144.421 36.1792C144.421 36.8922 144.252 37.5304 143.917 38.0991C143.581 38.6651 143.117 39.1118 142.53 39.4364C141.943 39.7611 141.281 39.9247 140.553 39.9247C139.825 39.9247 139.166 39.7611 138.582 39.4364ZM141.791 38.3516C142.157 38.1407 142.447 37.8439 142.659 37.4638C142.871 37.0837 142.974 36.6536 142.974 36.1764C142.974 35.6992 142.868 35.2691 142.659 34.889C142.45 34.5089 142.157 34.2121 141.791 34.0012C141.424 33.7903 141.011 33.6849 140.553 33.6849C140.095 33.6849 139.693 33.7903 139.327 34.0012C138.957 34.2121 138.671 34.5089 138.459 34.889C138.247 35.2691 138.143 35.6992 138.143 36.1764C138.143 36.6536 138.249 37.0837 138.459 37.4638C138.671 37.8439 138.957 38.1407 139.327 38.3516C139.693 38.5625 140.103 38.6679 140.553 38.6679C141.003 38.6679 141.424 38.5625 141.791 38.3516Z" fill="#5D4829"/>
<path d="M148.386 37.7138H146.842V39.8086H145.406V32.5449H148.386C149.008 32.5449 149.549 32.6476 150.011 32.8557C150.472 33.0638 150.824 33.3634 151.071 33.7546C151.317 34.1458 151.44 34.6064 151.44 35.1391C151.44 35.6718 151.309 36.1573 151.048 36.5513C150.787 36.9453 150.418 37.2394 149.939 37.4336L151.566 39.8086H150.025L148.578 37.7027C148.535 37.711 148.472 37.7138 148.386 37.7138ZM149.558 36.1712C149.847 35.927 149.991 35.5802 149.991 35.1391C149.991 34.6979 149.847 34.3539 149.561 34.1125C149.274 33.8711 148.856 33.7491 148.306 33.7491H146.839V36.5402H148.306C148.847 36.5402 149.266 36.4181 149.555 36.1712H149.558Z" fill="#5D4829"/>
<path d="M156.09 32.5449V38.6044H159.755V39.8086H154.655V32.5449H156.09Z" fill="#5D4829"/>
<path d="M161.887 32.5449V39.8086H160.451V32.5449H161.887Z" fill="#5D4829"/>
<path d="M164.8 35.8771H168.187V37.059H164.8V39.8086H163.365V32.5449H168.625V33.7269H164.8V35.8743V35.8771Z" fill="#5D4829"/>
<path d="M175 39.8086H169.599V32.5449H174.86V33.7269H171.023V35.5414H174.418V36.6928H171.023V38.6239H174.997V39.8058L175 39.8086Z" fill="#5D4829"/>
</g>
<defs>
<clipPath id="clip0_25_463">
<rect width="175" height="40" fill="white"/>
</clipPath>
</defs>
</svg>
