<svg xmlns="http://www.w3.org/2000/svg" width="54.82" height="52.498" viewBox="0 0 54.82 52.498">
  <g id="그룹_16" data-name="그룹 16" transform="translate(1966 -10496.751)">
    <g id="그룹_15" data-name="그룹 15">
      <g id="그룹_14" data-name="그룹 14" transform="translate(-1966 10496.751)">
        <path id="패스_13" data-name="패스 13" d="M34.876,25.178c-.017,4.41-3.677,7.827-8.366,7.811a8.029,8.029,0,0,1-8.281-7.908A8.139,8.139,0,0,1,26.61,17.22a8.1,8.1,0,0,1,8.266,7.958m-8.5,3.424a3.684,3.684,0,0,0,3.889-3.39,3.575,3.575,0,0,0-3.5-3.518,3.464,3.464,0,1,0-.385,6.908" fill="#141d50"/>
        <path id="패스_14" data-name="패스 14" d="M23.331,34.508c-.461,1.18-.672,1.918-1.023,2.589-2.984,5.69-7.489,10.2-12.346,14.409a3.791,3.791,0,0,1-2.313.991,3.682,3.682,0,0,1-2.554-1.088c-.406-.541-.112-1.678.107-2.493.129-.478.687-.875,1.106-1.252A58.3,58.3,0,0,0,17.5,34.443c.76-1.266,1.764-2.437,3.45-1.824a9.278,9.278,0,0,1,2.376,1.889" fill="#141d50"/>
        <path id="패스_15" data-name="패스 15" d="M47.077,49.806a14.292,14.292,0,0,1-3.225-1.522C39.914,44.813,36.013,41.3,32.23,37.671a3.053,3.053,0,0,1-.087-4.5c1.255-1.069,2.912-.723,4.553.82,3.821,3.592,7.74,7.09,11.478,10.759a3.943,3.943,0,0,1,1,3.015c-.109.74-1.318,1.331-2.1,2.041" fill="#141d50"/>
        <path id="패스_16" data-name="패스 16" d="M40.694,25.069a21.529,21.529,0,0,1-2.384-.015,2.542,2.542,0,0,1-2.515-2.642c-.008-1.437.907-2.241,2.443-2.414,4.377-.493,8.746-1.048,13.125-1.525,1.542-.168,2.985.123,3.383,1.849a2.383,2.383,0,0,1-2.1,2.938c-3.936.83-7.923,1.44-11.891,2.137l-.063-.328" fill="#141d50"/>
        <path id="패스_17" data-name="패스 17" d="M12.611,25.853c-3.428-.8-6.867-1.565-10.279-2.422C.773,23.039-.349,22.033.1,20.4c.491-1.792,1.976-2.169,3.791-1.8,3.321.67,6.658,1.27,9.992,1.882,1.57.288,3.132.672,3.005,2.607-.125,1.9-1.488,2.547-3.327,2.473-.289-.011-.579,0-.868,0-.028.1-.055.2-.082.3" fill="#141d50"/>
        <path id="패스_18" data-name="패스 18" d="M31.957,5.738c-.33,2.607-.61,5.222-1.007,7.82a2.526,2.526,0,0,1-3.2,2.3c-1.8-.266-2.288-1.505-2.184-3.05.211-3.108.411-6.218.7-9.321.22-2.375,1.256-3.543,2.9-3.487,1.73.058,2.63,1.36,2.653,3.846.006.624,0,1.247,0,1.871l.145.019" fill="#141d50"/>
        <path id="패스_19" data-name="패스 19" d="M29.031,38.354c-.3,2.15-.613,4.7-1.02,7.231-.206,1.279-.932,2.329-2.427,2.173-1.626-.171-2.07-1.4-1.885-2.781.339-2.542.772-5.072,1.15-7.609.213-1.427.7-2.712,2.512-2.493,1.926.232,1.71,1.748,1.67,3.479" fill="#ffa216"/>
        <path id="패스_20" data-name="패스 20" d="M38.548,27.113c3.6,1.506,6.883,2.767,10.022,4.294.537.26.832,1.775.568,2.481a2.563,2.563,0,0,1-2.3.793,98.658,98.658,0,0,1-9.147-3.713,2.391,2.391,0,0,1-1.08-2.11c.222-.718,1.282-1.2,1.938-1.745" fill="#ffa216"/>
        <path id="패스_21" data-name="패스 21" d="M44.161,10.933c-.037.116-.034.478-.218.625-2.571,2.063-5.126,4.15-7.816,6.061-.3.211-1.712-.453-2.043-1.017a2.257,2.257,0,0,1,.2-2.214,58.016,58.016,0,0,1,6.505-5.166,2.117,2.117,0,0,1,3.369,1.711" fill="#ffa216"/>
        <path id="패스_22" data-name="패스 22" d="M7.748,34.473c-.623-.609-1.812-1.248-1.845-1.937a3.147,3.147,0,0,1,1.405-2.568A22.854,22.854,0,0,1,13.52,28.3,3.131,3.131,0,0,1,16.1,29.817a2.879,2.879,0,0,1-1.278,2.6,58.831,58.831,0,0,1-7.072,2.053" fill="#ffa216"/>
        <path id="패스_23" data-name="패스 23" d="M20.415,16.166c-.37-.256-1.273-.579-1.651-1.2a39.2,39.2,0,0,1-3.182-6.079A2.773,2.773,0,0,1,16.5,6.351a2.745,2.745,0,0,1,2.522.665,44.256,44.256,0,0,1,3.7,6.756c.569,1.3-.255,2.251-2.314,2.394" fill="#ffa216"/>
        <path id="패스_24" data-name="패스 24" d="M16.8,17.011c-.52.235-1.588,1.061-1.972.831a18.245,18.245,0,0,1-4.022-3.283c-.238-.258.428-1.851,1.027-2.127,1.085-.5,4.923,2.764,4.967,4.579" fill="#ffa216"/>
      </g>
    </g>
  </g>
</svg>
