<svg width="125" height="41" viewBox="0 0 125 41" fill="none" xmlns="http://www.w3.org/2000/svg">
<g clip-path="url(#clip0_11_60)">
<path d="M99.5068 10.0265C99.5068 10.3753 99.558 10.7367 99.6989 11.0792C100.32 12.6012 101.902 13.5398 103.914 12.7471C104.394 12.5568 117.698 7.24872 117.698 7.24872C117.698 7.24872 112.458 20.4017 112.26 20.89C111.498 22.7735 112.414 24.4795 113.97 25.0503C114.316 25.1771 114.675 25.2405 115.027 25.2342C116.302 25.2278 117.422 24.4858 117.973 23.0019C118.057 22.7799 124.609 4.96566 124.75 4.54076C124.833 4.28708 124.987 3.69095 124.987 3.27873C124.987 2.39722 124.661 1.56643 124.026 0.938592C123.405 0.317092 122.572 0 121.695 0C121.266 0 120.92 0.0761021 120.395 0.24099C120.081 0.342459 103.19 6.5638 101.749 7.09652C100.307 7.62923 99.5068 8.77077 99.5132 10.0265" fill="#ED1C24"/>
<path d="M67.8581 20.0719V19.6914H57.6159V22.2852H63.5665C62.0164 27.1431 56.4758 29.9969 56.4758 29.9969L57.9554 32.0453C57.9554 32.0453 67.8581 27.9992 67.8581 20.0656V20.0719Z" fill="white"/>
<path d="M64.6234 37.2962V32.2544H60.9915V37.9367C60.9915 39.7124 62.4199 40.9935 64.38 40.9935H75.6341V38.406H65.8916C65.0077 38.406 64.6362 38.0572 64.617 37.2962H64.6234Z" fill="white"/>
<path d="M67.4481 24.4729V27.0667H71.7717V33.3198H75.4035V19.4185H71.7717V24.4729H67.4481Z" fill="white"/>
<path d="M98.7446 29.838H102.376V19.3105H98.7446V22.5893H94.959V25.1514H98.7446V29.838Z" fill="white"/>
<path d="M17.2816 32.0581H3.45888V37.937C3.45888 39.7127 4.88727 40.9938 6.8473 40.9938H18.0886V32.8572C18.0886 32.4132 17.7235 32.0581 17.2816 32.0581ZM14.4568 38.4063H8.35895C7.47502 38.4063 7.0971 38.0638 7.08429 37.2965V34.6583H14.4568V38.4063Z" fill="white"/>
<path d="M18.3321 19.7294V19.6089H3.26031V22.2027H14.5337C14.5337 22.3739 14.5337 22.5896 14.5337 22.7988C14.5337 25.2087 14.412 26.7942 14.3479 27.4411H0V30.0349H22.1048V27.4411H17.5826C17.8004 26.6293 18.3385 24.1179 18.3385 19.7294H18.3321Z" fill="white"/>
<path d="M40.9044 33.3643C43.9213 32.7111 46.1504 30.4724 46.1504 27.8215C46.1504 26.3946 45.5035 25.0882 44.4402 24.0798H48.2962V21.486H40.9044V19.0381H37.279V21.486H29.8873V24.0798H33.7433C32.68 25.0882 32.0331 26.3883 32.0331 27.8215C32.0331 30.4788 34.2621 32.7111 37.2854 33.3643V35.9898H28.0489V38.5836H50.1473V35.9898H40.9108V33.3643H40.9044ZM35.761 27.7391C35.761 25.9697 37.2534 24.5238 39.0853 24.5238C40.9172 24.5238 42.4097 25.9634 42.4097 27.7391C42.4097 29.5148 40.9172 30.9544 39.0853 30.9544C37.2534 30.9544 35.761 29.5148 35.761 27.7391Z" fill="white"/>
<path d="M91.8012 29.6163H95.3177C95.1704 28.7728 93.8829 21.9617 90.5329 19.6025H86.4783L83.359 29.6988H87.0036L89.0789 22.431C90.8276 24.4604 91.6795 28.9504 91.7948 29.6163H91.8012Z" fill="white"/>
<path d="M92.525 38.495C91.6026 38.495 91.4361 38.2603 91.4361 37.4866V37.1632H102.383V31.7092C102.383 31.2399 102.037 30.8721 101.544 30.8721H87.8683V33.3708H98.9047V34.7089H87.9644V37.9369C87.9644 39.8077 89.3223 40.9936 91.3528 40.9936H102.62V38.495H92.525Z" fill="white"/>
</g>
<defs>
<clipPath id="clip0_11_60">
<rect width="125" height="41" fill="white"/>
</clipPath>
</defs>
</svg>
