<svg width="85" height="85" viewBox="0 0 85 85" fill="none" xmlns="http://www.w3.org/2000/svg">
<rect width="85" height="85" fill="white"/>
<path d="M55.4704 45.663C55.4704 45.663 57.1035 39.0985 59.2752 32.0762C57.0146 30.1035 54.0206 28.8994 50.7372 28.8994C47.9781 28.8994 45.4253 29.7512 43.3367 31.1939C43.6318 37.603 43.4885 45.7712 42.2623 48.4042C42.0331 48.898 41.7895 49.3641 41.5288 49.8053C43.8495 52.1497 47.1157 53.6119 50.7344 53.6119C53.1267 53.6119 55.3615 52.9738 57.2754 51.864C54.1983 50.0744 55.4704 45.663 55.4704 45.663Z" fill="#6DA13C"/>
<path d="M20.5649 44.7495C20.3041 41.0899 20.6136 35.0637 21.1035 30.1944C20.8113 29.6812 20.5247 29.24 20.2497 28.9015C17.7972 25.8718 13.2675 24.3208 10.0614 28.9015C6.85537 33.4822 3.01901 46.5751 3.01901 46.5751C3.01901 46.5751 -0.189896 51.7523 4.78104 53.0314C9.74912 54.3104 21.1321 54.2494 24.215 53.0314C24.5215 52.9093 24.8052 52.7817 25.0716 52.6513C22.2495 51.2612 20.8514 48.7337 20.5677 44.7467L20.5649 44.7495Z" fill="#446A37"/>
<path d="M43.3367 31.1936C43.222 28.7076 43.0415 26.488 42.8295 24.9565C42.076 19.4741 40.377 17.2822 32.137 17.2212C23.897 17.1601 22.2639 22.8839 22.2639 22.8839C21.8771 23.9605 21.4473 26.796 21.1035 30.192C23.4443 34.2927 26.2807 43.3265 27.232 46.5754C28.1946 49.8632 27.4698 51.4752 25.0688 52.6516C26.6475 53.4284 28.6674 53.8502 31.1944 53.9667C37.2856 54.2497 39.8498 52.6127 41.5288 49.8022C39.3312 47.5826 37.9761 44.5722 37.9761 41.2539C37.9761 37.1033 40.0934 33.4326 43.3367 31.1908V31.1936Z" fill="#A4B648"/>
<path d="M43.3367 31.1934C40.0934 33.4324 37.9761 37.103 37.9761 41.2565C37.9761 44.5748 39.3284 47.5851 41.5288 49.8047C41.7924 49.3664 42.033 48.8975 42.2623 48.4036C43.4857 45.7706 43.6318 37.6025 43.3367 31.1934Z" fill="#538435"/>
<path d="M27.232 46.5758C26.2808 43.3297 23.4444 34.2931 21.1036 30.1924C20.6136 35.0616 20.3042 41.0879 20.5649 44.7474C20.8486 48.7316 22.2439 51.262 25.0689 52.652C27.4698 51.4756 28.1947 49.8636 27.232 46.5758Z" fill="#39582C"/>
<path d="M82.2617 45.357C81.9465 43.4703 76.9785 23.2497 75.3425 19.5957C73.7065 15.9417 69.8071 10.8255 65.5324 16.6104C63.5268 19.3238 61.1918 25.8772 59.275 32.0754C61.8651 34.3367 63.4953 37.6106 63.4953 41.2535C63.4953 45.7621 60.9998 49.7046 57.2781 51.8632C57.6878 52.1018 58.1691 52.2932 58.7421 52.4209C63.6472 53.5168 75.7236 54.7348 80.0613 52.9092C84.4019 51.0808 82.5769 47.2464 82.2617 45.357Z" fill="#6A8238"/>
<path d="M63.4925 41.2542C63.4925 37.6113 61.8623 34.3374 59.2722 32.0762C57.1005 39.0984 55.4674 45.6629 55.4674 45.6629C55.4674 45.6629 54.1953 50.0744 57.2724 51.8639C60.997 49.7054 63.4896 45.7628 63.4896 41.2542H63.4925Z" fill="#456A37"/>
<path d="M2.38182 62.3152H5.64191V63.453H2.38182V66.0999H1V59.1074H6.06391V60.2452H2.38182V62.3125V62.3152Z" fill="#5D4829"/>
<path d="M8.38637 65.7414C7.82371 65.4289 7.37966 64.9962 7.05696 64.4487C6.73426 63.9011 6.57153 63.2841 6.57153 62.6057C6.57153 61.9273 6.73426 61.313 7.05696 60.7628C7.37966 60.2126 7.82371 59.7826 8.38637 59.4701C8.94903 59.1576 9.58339 59 10.284 59C10.9845 59 11.6189 59.1576 12.1871 59.4701C12.7552 59.7826 13.1993 60.2126 13.522 60.7575C13.8447 61.3023 14.0074 61.9193 14.0074 62.6057C14.0074 63.2921 13.8447 63.9065 13.522 64.454C13.1993 64.9989 12.7525 65.4289 12.1871 65.7414C11.6216 66.0539 10.9845 66.2114 10.284 66.2114C9.58339 66.2114 8.94903 66.0539 8.38637 65.7414ZM11.4755 64.697C11.8285 64.4941 12.1071 64.2083 12.3112 63.8424C12.5153 63.4764 12.6146 63.0624 12.6146 62.6031C12.6146 62.1437 12.5125 61.7297 12.3112 61.3638C12.1098 60.9978 11.8285 60.7121 11.4755 60.5091C11.1224 60.3061 10.7253 60.2046 10.284 60.2046C9.84266 60.2046 9.45652 60.3061 9.10348 60.5091C8.74769 60.7121 8.47187 60.9978 8.26777 61.3638C8.06367 61.7297 7.96438 62.1437 7.96438 62.6031C7.96438 63.0624 8.06643 63.4764 8.26777 63.8424C8.47187 64.2083 8.74769 64.4941 9.10348 64.697C9.45652 64.9 9.85093 65.0015 10.284 65.0015C10.717 65.0015 11.1224 64.9 11.4755 64.697Z" fill="#5D4829"/>
<path d="M17.8245 64.0833H16.3379V66.0999H14.9561V59.1074H17.8245C18.423 59.1074 18.9443 59.2062 19.3884 59.4066C19.8324 59.6069 20.1717 59.8953 20.4088 60.2719C20.646 60.6485 20.7646 61.0919 20.7646 61.6047C20.7646 62.1175 20.6378 62.5849 20.3868 62.9642C20.1358 63.3435 19.78 63.6266 19.3194 63.8136L20.886 66.0999H19.4021L18.0093 64.0726C17.9679 64.0806 17.9072 64.0833 17.8245 64.0833ZM18.9526 62.5983C19.2311 62.3633 19.369 62.0294 19.369 61.6047C19.369 61.18 19.2311 60.8489 18.9553 60.6165C18.6795 60.3841 18.2768 60.2666 17.7473 60.2666H16.3351V62.9535H17.7473C18.2686 62.9535 18.6712 62.836 18.9498 62.5983H18.9526Z" fill="#5D4829"/>
<path d="M26.9732 66.0999H21.7742V59.1074H26.8381V60.2452H23.145V61.992H26.4133V63.1004H23.145V64.9594H26.9705V66.0972L26.9732 66.0999Z" fill="#5D4829"/>
<path d="M28.6473 65.9737C28.1481 65.8188 27.7509 65.6158 27.4558 65.3701L27.9302 64.3124C28.2198 64.5395 28.5673 64.7211 28.9728 64.8626C29.3782 65.0015 29.7864 65.0736 30.2001 65.0736C30.6883 65.0736 31.0496 64.9935 31.2896 64.8333C31.5268 64.673 31.6454 64.4647 31.6454 64.2029C31.6454 64.0026 31.5764 63.8424 31.4385 63.7248C31.3006 63.6046 31.1296 63.5112 30.9283 63.439C30.7242 63.3696 30.4346 63.2868 30.0567 63.1933C29.5409 63.0731 29.119 62.9476 28.7935 62.8194C28.468 62.6885 28.1867 62.4882 27.9523 62.2158C27.7178 61.9433 27.602 61.5774 27.602 61.118C27.602 60.7254 27.7068 60.3702 27.9164 60.0497C28.126 59.7292 28.4405 59.4754 28.8597 59.2858C29.2789 59.0962 29.7919 59 30.396 59C30.829 59 31.251 59.0561 31.6592 59.1656C32.0674 59.2751 32.4232 59.43 32.7266 59.6303L32.2935 60.6987C31.9901 60.5117 31.6757 60.3728 31.3503 60.2794C31.0248 60.1859 30.7049 60.1405 30.396 60.1405C29.9133 60.1405 29.5575 60.2259 29.3231 60.3942C29.0886 60.5625 28.9728 60.7815 28.9728 61.0486C28.9728 61.2409 29.0417 61.4011 29.1796 61.524C29.3175 61.6469 29.4913 61.743 29.7064 61.8125C29.9188 61.8819 30.2084 61.962 30.5725 62.0475C31.102 62.173 31.5268 62.3012 31.8467 62.4268C32.1667 62.5523 32.4425 62.7526 32.6769 63.0224C32.9114 63.2921 33.0272 63.6527 33.0272 64.1068C33.0272 64.4941 32.9196 64.8466 32.7073 65.1645C32.4949 65.485 32.1749 65.7387 31.7474 65.9283C31.3199 66.118 30.8014 66.2141 30.1891 66.2141C29.6595 66.2141 29.1465 66.1367 28.6473 65.9791V65.9737Z" fill="#5D4829"/>
<path d="M33.0686 60.2666V59.1074H38.9379V60.2666H36.6983V66.0999H35.3165V60.2666H33.0686Z" fill="#5D4829"/>
<path d="M42.9399 62.3152H46.2V63.453H42.9399V66.0999H41.5581V59.1074H46.622V60.2452H42.9399V62.3125V62.3152Z" fill="#5D4829"/>
<path d="M48.9416 65.7414C48.3789 65.4289 47.9348 64.9962 47.6121 64.4487C47.2894 63.9011 47.1267 63.2841 47.1267 62.6057C47.1267 61.9273 47.2894 61.313 47.6121 60.7628C47.9348 60.2126 48.3789 59.7826 48.9416 59.4701C49.5042 59.1576 50.1386 59 50.8391 59C51.5397 59 52.1741 59.1576 52.7422 59.4701C53.3104 59.7826 53.7545 60.2126 54.0772 60.7575C54.3999 61.3023 54.5626 61.9193 54.5626 62.6057C54.5626 63.2921 54.3999 63.9065 54.0772 64.454C53.7545 64.9989 53.3077 65.4289 52.7422 65.7414C52.1768 66.0539 51.5397 66.2114 50.8391 66.2114C50.1386 66.2114 49.5042 66.0539 48.9416 65.7414ZM52.0306 64.697C52.3837 64.4941 52.6623 64.2083 52.8664 63.8424C53.0705 63.4764 53.1697 63.0624 53.1697 62.6031C53.1697 62.1437 53.0677 61.7297 52.8664 61.3638C52.665 60.9978 52.3837 60.7121 52.0306 60.5091C51.6776 60.3061 51.2804 60.2046 50.8391 60.2046C50.3978 60.2046 50.0117 60.3061 49.6587 60.5091C49.3029 60.7121 49.0271 60.9978 48.823 61.3638C48.6189 61.7297 48.5196 62.1437 48.5196 62.6031C48.5196 63.0624 48.6216 63.4764 48.823 63.8424C49.0271 64.2083 49.3029 64.4941 49.6587 64.697C50.0117 64.9 50.4061 65.0015 50.8391 65.0015C51.2722 65.0015 51.6776 64.9 52.0306 64.697Z" fill="#5D4829"/>
<path d="M58.3799 64.0833H56.8933V66.0999H55.5115V59.1074H58.3799C58.9784 59.1074 59.4997 59.2062 59.9438 59.4066C60.3878 59.6069 60.7271 59.8953 60.9643 60.2719C61.2015 60.6485 61.3201 61.0919 61.3201 61.6047C61.3201 62.1175 61.1932 62.5849 60.9422 62.9642C60.6912 63.3435 60.3354 63.6266 59.8748 63.8136L61.4414 66.0999H59.9576L58.5647 64.0726C58.5233 64.0806 58.4626 64.0833 58.3799 64.0833ZM59.508 62.5983C59.7866 62.3633 59.9245 62.0294 59.9245 61.6047C59.9245 61.18 59.7866 60.8489 59.5107 60.6165C59.2349 60.3841 58.8322 60.2666 58.3027 60.2666H56.8905V62.9535H58.3027C58.824 62.9535 59.2267 62.836 59.5052 62.5983H59.508Z" fill="#5D4829"/>
<path d="M65.7964 59.1074V64.9407H69.324V66.0999H64.4146V59.1074H65.7964Z" fill="#5D4829"/>
<path d="M71.3762 59.1074V66.0999H69.9944V59.1074H71.3762Z" fill="#5D4829"/>
<path d="M74.1811 62.3152H77.4412V63.453H74.1811V66.0999H72.7993V59.1074H77.8632V60.2452H74.1811V62.3125V62.3152Z" fill="#5D4829"/>
<path d="M84.0001 66.0999H78.801V59.1074H83.8649V60.2452H80.1718V61.992H83.4402V63.1004H80.1718V64.9594H83.9973V66.0972L84.0001 66.0999Z" fill="#5D4829"/>
</svg>
